<svg width="943" height="250" viewBox="0 0 943 250" fill="none" xmlns="http://www.w3.org/2000/svg">
<path d="M204.261 143.105C201.975 143.105 200.121 141.25 200.121 138.962C200.121 136.673 201.975 134.819 204.261 134.819C206.547 134.819 208.4 136.673 208.4 138.962C208.4 141.25 206.547 143.105 204.261 143.105Z" fill="black"/>
<path d="M171.794 122.912C171.794 125.201 173.647 127.056 175.934 127.056C178.22 127.056 180.073 125.201 180.073 122.912C180.073 120.624 178.22 118.769 175.934 118.769C173.647 118.769 171.794 120.624 171.794 122.912Z" fill="black"/>
<path d="M129.309 92.702C129.309 94.9902 127.455 96.8451 125.169 96.8451C122.883 96.8451 121.03 94.9902 121.03 92.702C121.03 90.4139 122.883 88.5589 125.169 88.5589C127.455 88.5589 129.309 90.4139 129.309 92.702Z" fill="black"/>
<path d="M78.6169 122.912C78.6169 125.201 76.7636 127.056 74.4773 127.056C72.1911 127.056 70.3378 125.201 70.3378 122.912C70.3378 120.624 72.1911 118.769 74.4773 118.769C76.7636 118.769 78.6169 120.624 78.6169 122.912Z" fill="black"/>
<path d="M45.9539 143.105C48.2401 143.105 50.0935 141.25 50.0935 138.962C50.0935 136.673 48.2401 134.819 45.9539 134.819C43.6676 134.819 41.8143 136.673 41.8143 138.962C41.8143 141.25 43.6676 143.105 45.9539 143.105Z" fill="black"/>
<path fill-rule="evenodd" clip-rule="evenodd" d="M169.304 96.6639C170.187 95.7253 171.048 94.8102 171.934 93.8951H171.906C172.868 92.9022 173.885 91.9368 174.957 90.999C216.07 51.9162 276.366 112.513 237.451 153.857C237.147 154.171 236.84 154.491 236.531 154.814C235.89 155.481 235.242 156.157 234.593 156.808C187.626 204 125.049 204 125.049 204C125.049 204 62.3627 204 15.3958 156.808C14.7457 156.156 14.0956 155.478 13.454 154.809C13.1462 154.489 12.8405 154.17 12.5376 153.857C-26.3496 112.513 33.9187 51.8886 75.0593 90.999C76.0487 91.9368 77.0929 92.9297 78.0273 93.8951C78.4945 94.3777 78.9479 94.8673 79.4013 95.3568C79.8548 95.8464 80.3083 96.336 80.7755 96.8187V88.6546C82.3145 31.7818 167.592 31.7818 169.158 88.6546V96.8187L169.304 96.6639ZM169.476 174.773V182.987C167.556 183.726 165.664 184.406 163.807 185.033V171.266L201.208 152.55V148.295C197.285 147.01 194.451 143.317 194.451 138.962C194.451 133.54 198.843 129.144 204.261 129.144C209.678 129.144 214.07 133.54 214.07 138.962C214.07 143.477 211.025 147.28 206.878 148.426V154.303C206.878 155.378 206.271 156.36 205.311 156.841L169.476 174.773ZM141.149 161.545V190.723C139.094 191.068 137.195 191.34 135.479 191.554V158.037L172.881 139.321V132.245C168.958 130.961 166.124 127.268 166.124 122.912C166.124 117.49 170.516 113.095 175.934 113.095C181.351 113.095 185.743 117.49 185.743 122.912C185.743 127.427 182.698 131.231 178.551 132.377V141.074C178.551 142.149 177.944 143.132 176.984 143.612L141.149 161.545ZM128.077 102.081V192.246C126.225 192.354 125.209 192.354 125.209 192.354C125.209 192.354 124.218 192.354 122.407 192.25V102.125C118.334 100.931 115.36 97.1642 115.36 92.702C115.36 87.2799 119.752 82.8844 125.169 82.8844C130.587 82.8844 134.979 87.2799 134.979 92.702C134.979 97.111 132.075 100.841 128.077 102.081ZM114.932 191.555C113.215 191.341 111.317 191.07 109.262 190.726V161.545L73.4274 143.612C72.467 143.132 71.8603 142.149 71.8603 141.074V132.377C67.7133 131.231 64.668 127.427 64.668 122.912C64.668 117.49 69.0598 113.095 74.4773 113.095C79.8949 113.095 84.2867 117.49 84.2867 122.912C84.2867 127.268 81.4529 130.961 77.5301 132.245V139.321L114.932 158.037V191.555ZM86.4081 184.983C84.5504 184.354 82.6579 183.672 80.7384 182.932V174.773L44.9039 156.841C43.9435 156.36 43.3368 155.378 43.3368 154.303V148.426C39.1898 147.28 36.1445 143.477 36.1445 138.962C36.1445 133.54 40.5363 129.144 45.9539 129.144C51.3714 129.144 55.7632 133.54 55.7632 138.962C55.7632 143.317 52.9295 147.01 49.0066 148.294V152.55L86.4081 171.266V184.983Z" fill="black"/>
<path d="M353.075 154.921V183.777H278V76.2978H309.418V154.921H353.075Z" fill="black"/>
<path d="M441.134 152.822H390.687C392.428 156.12 395.289 158.694 399.269 160.542C403.299 162.341 408.473 163.241 414.791 163.241C423.199 163.241 430.811 161.267 437.627 157.32V177.706C434.343 180.155 430.015 182.178 424.642 183.777C419.318 185.326 413.224 186.101 406.358 186.101C396.756 186.101 388.398 184.402 381.284 181.004C374.169 177.606 368.697 172.759 364.866 166.464C361.085 160.168 359.194 152.773 359.194 144.278C359.194 136.233 360.96 129.138 364.493 122.992C368.075 116.796 373.1 111.999 379.567 108.602C386.085 105.154 393.647 103.43 402.254 103.43C414.891 103.43 424.517 106.778 431.134 113.473C437.801 120.169 441.134 129.938 441.134 142.779V152.822ZM403.299 125.391C399.517 125.391 396.483 126.44 394.194 128.538C391.955 130.587 390.637 133.46 390.239 137.158H415.761C415.562 133.31 414.393 130.387 412.254 128.389C410.114 126.39 407.129 125.391 403.299 125.391Z" fill="black"/>
<path d="M507.776 103.43C513.448 103.43 518.323 104.679 522.403 107.178C526.483 109.626 529.592 113.199 531.731 117.895C533.92 122.592 535.015 128.189 535.015 134.684V183.777H504.343V141.655C504.343 133.16 501.134 128.913 494.716 128.913C491.284 128.913 488.697 130.112 486.955 132.511C485.214 134.909 484.343 138.132 484.343 142.179V183.777H453.672V105.753H483.746V116.771C485.786 112.774 488.846 109.551 492.925 107.103C497.005 104.654 501.955 103.43 507.776 103.43Z" fill="black"/>
<path d="M580.313 186.101C574.692 186.101 569.144 185.326 563.672 183.777C558.249 182.178 553.149 179.88 548.373 176.882V153.872C552.403 156.82 557.204 159.293 562.776 161.292C568.348 163.241 573.149 164.215 577.179 164.215C582.254 164.215 584.791 162.666 584.791 159.568C584.791 158.269 584.219 157.245 583.075 156.495C581.98 155.746 580.214 155.096 577.776 154.546L569.194 152.598C561.98 150.999 556.557 148.425 552.925 144.878C549.343 141.33 547.552 136.433 547.552 130.187C547.552 124.791 548.97 120.094 551.806 116.097C554.692 112.049 558.821 108.926 564.194 106.728C569.617 104.529 576.01 103.43 583.373 103.43C589.692 103.43 595.164 104.13 599.791 105.529C604.468 106.878 608.697 108.702 612.478 111V132.136C608.498 129.838 604.343 128.089 600.015 126.89C595.687 125.64 591.408 125.016 587.179 125.016C584.443 125.016 582.403 125.366 581.06 126.065C579.766 126.765 579.119 127.714 579.119 128.913C579.119 130.062 579.592 130.987 580.537 131.686C581.532 132.336 583.323 132.911 585.91 133.41L595.612 135.284C609.94 137.932 617.104 145.702 617.104 158.594C617.104 163.94 615.612 168.687 612.627 172.834C609.642 176.982 605.363 180.229 599.791 182.578C594.219 184.926 587.726 186.101 580.313 186.101Z" fill="black"/>
<path d="M668.299 187C654.169 187 640.836 183.452 628.299 176.357V147.801C633.174 151.298 638.871 154.147 645.388 156.345C651.955 158.544 658.249 159.643 664.269 159.643C668.498 159.643 671.607 158.993 673.597 157.694C675.587 156.345 676.582 154.322 676.582 151.623C676.582 149.774 676.035 148.25 674.94 147.051C673.896 145.802 672.055 144.703 669.418 143.753L655.612 139.631C645.811 136.683 638.721 132.661 634.343 127.564C629.965 122.417 627.776 115.822 627.776 107.777C627.776 100.582 629.443 94.3859 632.776 89.1893C636.159 83.9428 641.035 79.9454 647.403 77.1972C653.771 74.3991 661.383 73 670.239 73C682.627 73 694.741 75.973 706.582 81.9191V109.876C701.507 106.778 696.184 104.379 690.612 102.68C685.04 100.982 679.642 100.132 674.418 100.132C670.04 100.132 666.831 100.707 664.791 101.856C662.751 102.955 661.731 104.654 661.731 106.953C661.731 108.652 662.403 110.076 663.746 111.225C665.09 112.374 667.179 113.398 670.015 114.298L681.358 117.371C692.005 120.169 699.816 124.266 704.791 129.663C709.816 135.059 712.328 142.08 712.328 150.724C712.328 158.219 710.587 164.69 707.104 170.136C703.622 175.583 698.572 179.755 691.955 182.653C685.388 185.551 677.503 187 668.299 187Z" fill="black"/>
<path d="M727.403 76.2978H773.224C784.915 76.2978 794.766 78.4964 802.776 82.8935C810.836 87.2406 816.881 93.3616 820.91 101.256C824.94 109.101 826.955 118.27 826.955 128.763C826.955 139.406 824.866 148.875 820.687 157.17C816.557 165.464 810.338 171.985 802.03 176.732C793.771 181.429 783.672 183.777 771.731 183.777H727.403V76.2978ZM771.209 155.596C778.572 155.596 784.144 153.222 787.925 148.475C791.756 143.728 793.672 137.333 793.672 129.288C793.672 121.443 791.806 115.347 788.075 111C784.393 106.653 778.97 104.479 771.806 104.479H758.821V155.596H771.209Z" fill="black"/>
<path d="M904.269 183.777L873.597 134.46V183.777H842.179V76.2978H873.597V119.919L903.746 76.2978H940.687L904.194 125.615L943 183.777H904.269Z" fill="black"/>
</svg>
