<svg width="250" height="250" viewBox="0 0 250 250" fill="none" xmlns="http://www.w3.org/2000/svg">
<path d="M204.261 143.105C201.975 143.105 200.121 141.25 200.121 138.962C200.121 136.673 201.975 134.819 204.261 134.819C206.547 134.819 208.4 136.673 208.4 138.962C208.4 141.25 206.547 143.105 204.261 143.105Z" fill="white"/>
<path d="M171.794 122.912C171.794 125.201 173.647 127.056 175.934 127.056C178.22 127.056 180.073 125.201 180.073 122.912C180.073 120.624 178.22 118.769 175.934 118.769C173.647 118.769 171.794 120.624 171.794 122.912Z" fill="white"/>
<path d="M129.309 92.702C129.309 94.9902 127.455 96.8451 125.169 96.8451C122.883 96.8451 121.03 94.9902 121.03 92.702C121.03 90.4139 122.883 88.5589 125.169 88.5589C127.455 88.5589 129.309 90.4139 129.309 92.702Z" fill="white"/>
<path d="M78.6169 122.912C78.6169 125.201 76.7636 127.056 74.4773 127.056C72.1911 127.056 70.3378 125.201 70.3378 122.912C70.3378 120.624 72.1911 118.769 74.4773 118.769C76.7636 118.769 78.6169 120.624 78.6169 122.912Z" fill="white"/>
<path d="M45.9539 143.105C48.2401 143.105 50.0935 141.25 50.0935 138.962C50.0935 136.673 48.2401 134.819 45.9539 134.819C43.6676 134.819 41.8143 136.673 41.8143 138.962C41.8143 141.25 43.6676 143.105 45.9539 143.105Z" fill="white"/>
<path fill-rule="evenodd" clip-rule="evenodd" d="M169.304 96.6639C170.187 95.7253 171.048 94.8102 171.934 93.8951H171.906C172.868 92.9022 173.885 91.9368 174.957 90.999C216.07 51.9162 276.366 112.513 237.451 153.857C237.147 154.171 236.84 154.491 236.531 154.814C235.89 155.481 235.242 156.157 234.593 156.808C187.626 204 125.049 204 125.049 204C125.049 204 62.3627 204 15.3958 156.808C14.7457 156.156 14.0956 155.478 13.454 154.809C13.1462 154.489 12.8405 154.17 12.5376 153.857C-26.3496 112.513 33.9187 51.8886 75.0593 90.999C76.0487 91.9368 77.0929 92.9297 78.0273 93.8951C78.4945 94.3777 78.9479 94.8673 79.4013 95.3568C79.8548 95.8464 80.3083 96.336 80.7755 96.8187V88.6546C82.3145 31.7818 167.592 31.7818 169.158 88.6546V96.8187L169.304 96.6639ZM169.476 174.773V182.987C167.556 183.726 165.664 184.406 163.807 185.033V171.266L201.208 152.55V148.295C197.285 147.01 194.451 143.317 194.451 138.962C194.451 133.54 198.843 129.144 204.261 129.144C209.678 129.144 214.07 133.54 214.07 138.962C214.07 143.477 211.025 147.28 206.878 148.426V154.303C206.878 155.378 206.271 156.36 205.311 156.841L169.476 174.773ZM141.149 161.545V190.723C139.094 191.068 137.195 191.34 135.479 191.554V158.037L172.881 139.321V132.245C168.958 130.961 166.124 127.268 166.124 122.912C166.124 117.49 170.516 113.095 175.934 113.095C181.351 113.095 185.743 117.49 185.743 122.912C185.743 127.427 182.698 131.231 178.551 132.377V141.074C178.551 142.149 177.944 143.132 176.984 143.612L141.149 161.545ZM128.077 102.081V192.246C126.225 192.354 125.209 192.354 125.209 192.354C125.209 192.354 124.218 192.354 122.407 192.25V102.125C118.334 100.931 115.36 97.1642 115.36 92.702C115.36 87.2799 119.752 82.8844 125.169 82.8844C130.587 82.8844 134.979 87.2799 134.979 92.702C134.979 97.111 132.075 100.841 128.077 102.081ZM114.932 191.555C113.215 191.341 111.317 191.07 109.262 190.726V161.545L73.4274 143.612C72.467 143.132 71.8603 142.149 71.8603 141.074V132.377C67.7133 131.231 64.668 127.427 64.668 122.912C64.668 117.49 69.0598 113.095 74.4773 113.095C79.8949 113.095 84.2867 117.49 84.2867 122.912C84.2867 127.268 81.4529 130.961 77.5301 132.245V139.321L114.932 158.037V191.555ZM86.4081 184.983C84.5504 184.354 82.6579 183.672 80.7384 182.932V174.773L44.9039 156.841C43.9435 156.36 43.3368 155.378 43.3368 154.303V148.426C39.1898 147.28 36.1445 143.477 36.1445 138.962C36.1445 133.54 40.5363 129.144 45.9539 129.144C51.3714 129.144 55.7632 133.54 55.7632 138.962C55.7632 143.317 52.9295 147.01 49.0066 148.294V152.55L86.4081 171.266V184.983Z" fill="white"/>
</svg>
