<svg width="151" height="64" viewBox="0 0 151 64" fill="none" xmlns="http://www.w3.org/2000/svg">
<path d="M91.5756 24.6861V29.5809H76.1532V12.7885H82.1488V24.6861H91.5756Z" fill="#C3E4CD"/>
<path d="M109.141 25.3067V29.5809H93.5078V12.7885H109.071V17.0627H99.5034V19.1237H108.591V23.0583H99.5034V25.3067H109.141Z" fill="#C3E4CD"/>
<path d="M130.793 12.7885V29.5809H123.146L117.244 18.9832V29.5809H111.916V12.7885H119.809L125.488 23.1989V12.7885H130.793Z" fill="#C3E4CD"/>
<path d="M141.602 30.0845C140.017 30.0845 138.53 29.8971 137.14 29.5224C135.758 29.1399 134.552 28.6324 133.522 28.0001V23.6556C134.583 24.3191 135.754 24.8461 137.035 25.2364C138.315 25.619 139.615 25.8103 140.934 25.8103C141.887 25.8103 142.593 25.7244 143.054 25.5526C143.514 25.3809 143.745 25.1076 143.745 24.7329C143.745 24.405 143.585 24.1435 143.265 23.9483C142.944 23.7532 142.375 23.5853 141.555 23.4448L139.166 23.0115C137.175 22.6524 135.715 22.0396 134.786 21.173C133.865 20.3064 133.405 19.1588 133.405 17.7302C133.405 16.645 133.721 15.6965 134.353 14.8846C134.993 14.0649 135.953 13.4286 137.234 12.9758C138.522 12.5152 140.107 12.2849 141.988 12.2849C143.596 12.2849 144.982 12.4489 146.145 12.7768C147.316 13.1046 148.28 13.5028 149.038 13.9712V18.14C148.327 17.7419 147.422 17.3984 146.321 17.1095C145.228 16.8207 144.041 16.6763 142.761 16.6763C140.7 16.6763 139.67 17.012 139.67 17.6833C139.67 17.8707 139.724 18.0268 139.833 18.1518C139.951 18.2689 140.15 18.3703 140.431 18.4562C140.712 18.5421 141.114 18.6202 141.637 18.6904L144.318 19.1237C145.638 19.3423 146.715 19.6663 147.55 20.0957C148.386 20.5172 149.01 21.0754 149.424 21.7702C149.838 22.4572 150.045 23.3082 150.045 24.3231C150.045 25.4785 149.693 26.4933 148.991 27.3677C148.296 28.2343 147.308 28.9057 146.028 29.3819C144.756 29.8503 143.28 30.0845 141.602 30.0845Z" fill="#C3E4CD"/>
<path d="M83.8 52.6474C82.2152 52.6474 80.728 52.46 79.3384 52.0853C77.9566 51.7028 76.7504 51.1953 75.7199 50.563V46.2185C76.7816 46.882 77.9527 47.409 79.233 47.7994C80.5133 48.1819 81.8131 48.3732 83.1325 48.3732C84.0849 48.3732 84.7914 48.2873 85.252 48.1155C85.7127 47.9438 85.943 47.6705 85.943 47.2958C85.943 46.9679 85.7829 46.7064 85.4628 46.5112C85.1428 46.3161 84.5729 46.1482 83.7531 46.0077L81.3642 45.5744C79.3735 45.2153 77.9136 44.6025 76.9846 43.7359C76.0634 42.8693 75.6028 41.7217 75.6028 40.2931C75.6028 39.2079 75.919 38.2594 76.5513 37.4475C77.1915 36.6278 78.1517 35.9915 79.4321 35.5387C80.7202 35.0781 82.305 34.8478 84.1864 34.8478C85.7946 34.8478 87.1803 35.0118 88.3436 35.3397C89.5146 35.6675 90.4787 36.0657 91.236 36.5341V40.7029C90.5256 40.3048 89.62 39.9613 88.5192 39.6724C87.4262 39.3836 86.2396 39.2392 84.9593 39.2392C82.8983 39.2392 81.8678 39.5749 81.8678 40.2463C81.8678 40.4336 81.9224 40.5897 82.0317 40.7147C82.1488 40.8318 82.3479 40.9332 82.629 41.0191C82.91 41.105 83.3121 41.1831 83.8351 41.2533L86.5168 41.6866C87.8361 41.9052 88.9134 42.2292 89.7488 42.6586C90.5841 43.0801 91.2087 43.6383 91.6224 44.3331C92.0362 45.0201 92.2431 45.8711 92.2431 46.886C92.2431 48.0414 91.8918 49.0563 91.1891 49.9306C90.4943 50.7972 89.5068 51.4686 88.2264 51.9448C86.9539 52.4132 85.4784 52.6474 83.8 52.6474Z" fill="#C3E4CD"/>
<path d="M94.6085 35.3514H103.965C106.221 35.3514 108.126 35.7066 109.68 36.417C111.241 37.1196 112.408 38.0955 113.181 39.3446C113.962 40.5937 114.352 42.0301 114.352 43.6539C114.352 45.2387 113.946 46.6713 113.134 47.9516C112.33 49.2319 111.097 50.2507 109.434 51.008C107.779 51.7652 105.733 52.1438 103.298 52.1438H94.6085V35.3514ZM103.192 47.8696C104.207 47.8696 105.07 47.6979 105.78 47.3544C106.491 47.0109 107.025 46.5229 107.384 45.8906C107.744 45.2504 107.923 44.4971 107.923 43.6305C107.923 42.4048 107.556 41.4329 106.822 40.7147C106.096 39.9886 104.999 39.6256 103.532 39.6256H100.604V47.8696H103.192Z" fill="#C3E4CD"/>
<path d="M128.638 52.1438L122.713 44.2863V52.1438H116.717V35.3514H122.713V41.8154L128.779 35.3514H135.957L128.674 42.8576L136.051 52.1438H128.638Z" fill="#C3E4CD"/>
<path fill-rule="evenodd" clip-rule="evenodd" d="M25.6861 0.705699C27.301 -0.233617 29.2954 -0.23534 30.9119 0.701187L54.1106 14.1417C55.717 15.0724 56.706 16.7884 56.706 18.6449V45.5392C56.706 47.4068 55.7052 49.1313 54.0837 50.0579L30.8849 63.3143C29.2822 64.2301 27.3142 64.2285 25.713 63.3099L2.61454 50.0581C0.997342 49.1304 0 47.4084 0 45.5439V18.6402C0 16.7868 0.985594 15.0733 2.58762 14.1415L25.6861 0.705699ZM30.4783 2.95616C29.1313 2.17572 27.4693 2.17715 26.1235 2.95992L6.15643 14.5743C4.86039 15.3281 4.86318 17.2012 6.16146 17.9512L23.7531 28.1136C26.5671 29.7393 30.0343 29.7423 32.8511 28.1215L50.5235 17.9528C51.8257 17.2036 51.8285 15.3257 50.5286 14.5726L30.4783 2.95616ZM54.5375 27.1441C54.5375 23.1411 50.2071 20.6368 46.7375 22.6331L31.9918 31.1178C30.3778 32.0464 29.383 33.7666 29.383 35.6287V52.7069C29.383 56.7029 33.6999 59.2081 37.1695 57.2256L51.9152 48.7994C53.5367 47.8728 54.5375 46.1484 54.5375 44.2808V27.1441ZM24.2917 59.9944C25.5928 60.7409 27.2145 59.8016 27.2145 58.3016V37.8744C27.2145 34.6214 25.4795 31.6153 22.6627 29.9881L5.09638 19.8402C3.79528 19.0886 2.16849 20.0275 2.16849 21.5301V44.7904C2.16849 46.3441 2.99961 47.779 4.34727 48.5522L24.2917 59.9944Z" fill="#C3E4CD"/>
<path fill-rule="evenodd" clip-rule="evenodd" d="M28.2988 63.5433L55.6217 47.9302V16.2703L28.2988 31.9918V63.5433ZM47.8875 42.779C49.9775 40.4547 52.876 37.0944 52.9111 33.7739L52.9096 33.7724C52.9264 32.1978 51.8875 30.8834 50.2322 31.1619C48.3314 31.4817 47.0439 33.4908 46.2063 35.0424C46.2307 34.0845 46.2521 32.7778 45.4115 32.1137C44.0477 31.0364 42.0843 32.4274 41.111 33.4021C39.5138 35.0027 38.7937 37.0684 38.8334 39.3055C35.9775 37.2581 33.0821 41.7263 32.3803 44.0017C30.4261 50.3381 38.9798 49.3848 42.4001 47.4752C44.4733 46.3184 46.3116 44.5311 47.8875 42.779Z" fill="#C3E4CD"/>
</svg>
