<svg width="750" height="263" viewBox="0 0 750 263" fill="none" xmlns="http://www.w3.org/2000/svg">
<rect width="750" height="263" fill="#3D4B41"/>
<path d="M408.151 117.372V127.162H377.306V93.5769H389.298V117.372H408.151Z" fill="#C3E4CD"/>
<path d="M443.282 118.613V127.162H412.016V93.5769H443.141V102.125H424.007V106.247H442.181V114.117H424.007V118.613H443.282Z" fill="#C3E4CD"/>
<path d="M486.586 93.5769V127.162H471.293L459.489 105.966V127.162H448.833V93.5769H464.618L475.977 114.398V93.5769H486.586Z" fill="#C3E4CD"/>
<path d="M508.203 128.169C505.034 128.169 502.059 127.794 499.28 127.045C496.517 126.28 494.104 125.265 492.043 124V115.311C494.167 116.638 496.509 117.692 499.069 118.473C501.63 119.238 504.23 119.62 506.868 119.62C508.773 119.62 510.186 119.449 511.108 119.105C512.029 118.762 512.489 118.215 512.489 117.466C512.489 116.81 512.169 116.287 511.529 115.897C510.889 115.506 509.749 115.171 508.11 114.89L503.332 114.023C499.35 113.305 496.431 112.079 494.573 110.346C492.73 108.613 491.809 106.318 491.809 103.46C491.809 101.29 492.441 99.393 493.706 97.7692C494.986 96.1297 496.907 94.8572 499.468 93.9516C502.044 93.0304 505.213 92.5698 508.976 92.5698C512.193 92.5698 514.964 92.8977 517.291 93.5535C519.633 94.2093 521.561 95.0056 523.075 95.9424V104.28C521.655 103.484 519.843 102.797 517.642 102.219C515.456 101.641 513.083 101.353 510.522 101.353C506.4 101.353 504.339 102.024 504.339 103.367C504.339 103.741 504.448 104.054 504.667 104.303C504.901 104.538 505.299 104.741 505.861 104.912C506.423 105.084 507.228 105.24 508.274 105.381L513.637 106.247C516.276 106.685 518.43 107.333 520.101 108.191C521.772 109.034 523.021 110.151 523.848 111.54C524.676 112.914 525.09 114.616 525.09 116.646C525.09 118.957 524.387 120.987 522.982 122.735C521.592 124.469 519.617 125.811 517.056 126.764C514.511 127.701 511.56 128.169 508.203 128.169Z" fill="#C3E4CD"/>
<path d="M392.6 173.295C389.43 173.295 386.456 172.92 383.677 172.171C380.913 171.405 378.501 170.391 376.44 169.126V160.437C378.563 161.764 380.905 162.818 383.466 163.599C386.027 164.364 388.626 164.746 391.265 164.746C393.17 164.746 394.583 164.575 395.504 164.231C396.425 163.888 396.886 163.341 396.886 162.592C396.886 161.936 396.566 161.413 395.926 161.022C395.286 160.632 394.146 160.296 392.506 160.015L387.728 159.149C383.747 158.431 380.827 157.205 378.969 155.472C377.127 153.739 376.206 151.443 376.206 148.586C376.206 146.416 376.838 144.519 378.103 142.895C379.383 141.256 381.303 139.983 383.864 139.077C386.44 138.156 389.61 137.696 393.373 137.696C396.589 137.696 399.361 138.024 401.687 138.679C404.029 139.335 405.957 140.131 407.472 141.068V149.406C406.051 148.61 404.24 147.923 402.038 147.345C399.852 146.767 397.479 146.478 394.919 146.478C390.797 146.478 388.736 147.15 388.736 148.492C388.736 148.867 388.845 149.179 389.063 149.429C389.298 149.663 389.696 149.866 390.258 150.038C390.82 150.21 391.624 150.366 392.67 150.507L398.034 151.373C400.672 151.81 402.827 152.458 404.498 153.317C406.168 154.16 407.417 155.277 408.245 156.666C409.072 158.04 409.486 159.742 409.486 161.772C409.486 164.083 408.784 166.112 407.378 167.861C405.989 169.594 404.014 170.937 401.453 171.89C398.908 172.826 395.957 173.295 392.6 173.295Z" fill="#C3E4CD"/>
<path d="M414.217 138.703H432.93C437.442 138.703 441.252 139.413 444.359 140.834C447.482 142.239 449.816 144.191 451.362 146.689C452.923 149.187 453.704 152.06 453.704 155.308C453.704 158.477 452.892 161.343 451.268 163.903C449.66 166.464 447.193 168.501 443.867 170.016C440.557 171.53 436.467 172.288 431.595 172.288H414.217V138.703ZM431.384 163.739C433.414 163.739 435.139 163.396 436.56 162.709C437.981 162.022 439.051 161.046 439.769 159.781C440.487 158.501 440.846 156.994 440.846 155.261C440.846 152.81 440.112 150.866 438.645 149.429C437.193 147.977 434.999 147.251 432.063 147.251H426.208V163.739H431.384Z" fill="#C3E4CD"/>
<path d="M482.277 172.288L470.426 156.573V172.288H458.435V138.703H470.426V151.631L482.558 138.703H496.915L482.347 153.715L497.102 172.288H482.277Z" fill="#C3E4CD"/>
<path fill-rule="evenodd" clip-rule="evenodd" d="M276.372 69.4114C279.602 67.5328 283.591 67.5293 286.824 69.4024L333.221 96.2834C336.434 98.1448 338.412 101.577 338.412 105.29V159.078C338.412 162.814 336.41 166.263 333.167 168.116L286.77 194.629C283.564 196.46 279.628 196.457 276.426 194.62L230.229 168.116C226.995 166.261 225 162.817 225 159.088V105.28C225 101.574 226.971 98.1467 230.175 96.283L276.372 69.4114ZM285.957 73.9123C283.263 72.3514 279.939 72.3543 277.247 73.9198L237.313 97.1485C234.721 98.6563 234.726 102.402 237.323 103.902L272.506 124.227C278.134 127.479 285.069 127.485 290.702 124.243L326.047 103.906C328.651 102.407 328.657 98.6514 326.057 97.1451L285.957 73.9123ZM334.075 122.288C334.075 114.282 325.414 109.274 318.475 113.266L288.984 130.236C285.756 132.093 283.766 135.533 283.766 139.257V173.414C283.766 181.406 292.4 186.416 299.339 182.451L328.83 165.599C332.073 163.746 334.075 160.297 334.075 156.562V122.288ZM273.583 187.989C276.186 189.482 279.429 187.603 279.429 184.603V143.749C279.429 137.243 275.959 131.231 270.325 127.976L235.193 107.68C232.591 106.177 229.337 108.055 229.337 111.06V157.581C229.337 160.688 230.999 163.558 233.695 165.104L273.583 187.989Z" fill="#C3E4CD"/>
<path fill-rule="evenodd" clip-rule="evenodd" d="M281.598 195.087L336.243 163.86V100.541L281.598 131.984V195.087ZM320.775 153.558C324.955 148.909 330.752 142.189 330.822 135.548L330.819 135.545C330.853 132.396 328.775 129.767 325.464 130.324C321.663 130.963 319.088 134.982 317.413 138.085C317.461 136.169 317.504 133.556 315.823 132.227C313.095 130.073 309.169 132.855 307.222 134.804C304.028 138.005 302.587 142.137 302.667 146.611C296.955 142.516 291.164 151.453 289.761 156.003C285.852 168.676 302.96 166.77 309.8 162.95C313.947 160.637 317.623 157.062 320.775 153.558Z" fill="#C3E4CD"/>
</svg>
