<svg width="40" height="26" viewBox="0 0 40 26" fill="none" xmlns="http://www.w3.org/2000/svg">
    <style>
        path { fill: #090909; }
        path:last-child { fill: #ffffff; }
        @media (prefers-color-scheme: dark) {
        path { fill: #ffffff; }
        path:last-child { fill: #090909; }
        }
    </style>
    <path
        d="M26.7277 8.31968C26.575 8.47469 26.3237 8.36854 26.3237 8.15105C26.3237 7.95254 26.3237 7.73361 26.3144 7.52694C26.0793 -1.05716 13.2302 -1.05716 12.9952 7.52694C12.9898 7.73361 12.9871 7.94166 12.9871 8.15105C12.9871 8.36104 12.732 8.46798 12.5833 8.31968C12.4375 8.17417 12.2862 8.02597 12.1376 7.88455C5.93731 1.98188 -3.14242 11.1371 2.71896 17.3661C2.86121 17.5165 3.00572 17.6661 3.15247 17.8148C10.2247 24.9352 19.6532 24.9359 19.6548 24.9359C19.6547 24.9359 19.6548 24.9359 19.6548 24.9359C19.6564 24.9359 29.0863 24.9352 36.1584 17.8148C36.3061 17.667 36.4507 17.5175 36.592 17.3661C42.4534 11.1303 33.3682 1.98188 27.1733 7.88455C27.0233 8.02597 26.8708 8.17146 26.7277 8.31968Z"
        fill="#090909"></path>
    <path
        d="M19.6548 24.9359C19.6532 24.9359 10.2247 24.9352 3.15247 17.8148C3.00572 17.6661 2.86121 17.5165 2.71896 17.3661C-3.14242 11.1371 5.93731 1.98188 12.1376 7.88455C12.2862 8.02597 12.4375 8.17417 12.5833 8.31968C12.732 8.46798 12.9871 8.36104 12.9871 8.15105C12.9871 7.94166 12.9898 7.73362 12.9952 7.52694C13.2302 -1.05716 26.0793 -1.05716 26.3144 7.52694C26.3237 7.73362 26.3237 7.95254 26.3237 8.15105C26.3237 8.36854 26.575 8.47469 26.7277 8.31968C26.8708 8.17146 27.0233 8.02597 27.1733 7.88455C33.3682 1.98188 42.4534 11.1303 36.592 17.3661C36.4507 17.5175 36.3061 17.667 36.1584 17.8148C29.0863 24.9352 19.6564 24.9359 19.6548 24.9359ZM19.6548 24.9359C19.6547 24.9359 19.6548 24.9359 19.6548 24.9359Z"
        stroke="#090909" stroke-width="1.65845" stroke-miterlimit="10"></path>

    <path fill-rule="evenodd" clip-rule="evenodd"
        d="M25.1176 14.7762C24.9168 14.7762 24.8481 15.0693 24.9761 15.2239C25.201 15.4953 25.3363 15.8447 25.3363 16.2259C25.3363 17.0902 24.6403 17.7909 23.7818 17.7909C22.9234 17.7909 22.2273 17.0902 22.2273 16.2259C22.2273 16.178 22.1652 16.1541 22.1372 16.1929C21.8936 16.5314 21.7291 16.9111 21.6616 17.3096C21.6237 17.5336 21.4429 17.7191 21.2156 17.7191H21.0876C20.7897 17.7191 20.5438 17.4759 20.5878 17.1812C20.8893 15.1619 22.866 13.6973 25.1176 13.6973C27.3691 13.6973 29.346 15.1619 29.6474 17.1812C29.6913 17.4759 29.4456 17.7191 29.1475 17.7191C28.8497 17.7191 28.6137 17.4747 28.5491 17.1839C28.2543 15.8602 26.8881 14.7762 25.1176 14.7762ZM11.3139 16.2259C11.3139 16.1624 11.232 16.1281 11.1937 16.1787C10.9336 16.5223 10.7565 16.911 10.6817 17.3206C10.6376 17.5618 10.4428 17.7621 10.1976 17.7621H10.1021C9.80413 17.7621 9.55834 17.5189 9.60227 17.2242C9.90358 15.2038 11.8806 13.7403 14.1321 13.7403C16.3836 13.7403 18.3606 15.2038 18.6619 17.2242C18.7059 17.5189 18.4601 17.7621 18.1621 17.7621C17.8642 17.7621 17.6282 17.5177 17.5636 17.2269C17.269 15.9025 15.9028 14.8193 14.1321 14.8193C13.9684 14.8193 13.9092 15.0519 14.0189 15.1734C14.2699 15.4513 14.4229 15.8206 14.4229 16.2259C14.4229 17.0902 13.7269 17.7909 12.8684 17.7909C12.0099 17.7909 11.3139 17.0902 11.3139 16.2259ZM22.182 19.8297C21.9206 19.6869 21.5951 19.7893 21.3846 20.0001C20.9786 20.4064 20.3633 20.684 19.6511 20.684C18.9371 20.684 18.3224 20.4092 17.9174 20.0026C17.7071 19.7915 17.3822 19.6878 17.1202 19.8297C16.8582 19.9716 16.7578 20.303 16.9456 20.5344C17.5601 21.2916 18.5559 21.7629 19.6511 21.7629C20.747 21.7629 21.7405 21.2866 22.3543 20.535C22.5426 20.3042 22.4436 19.9726 22.182 19.8297Z"
        fill="white"></path>
</svg>